Coordinates
version=1
nRows=10
nColumns=40
inDegrees=yes

Units are S.I. units (second, meters, Newtons, ...)
Angles are in degrees.

endheader
time	pelvis_tilt	pelvis_list	pelvis_rotation	pelvis_tx	pelvis_ty	pelvis_tz	hip_flexion_r	hip_adduction_r	hip_rotation_r	knee_angle_r	knee_angle_r_beta	ankle_angle_r	subtalar_angle_r	mtp_angle_r	hip_flexion_l	hip_adduction_l	hip_rotation_l	knee_angle_l	knee_angle_l_beta	ankle_angle_l	subtalar_angle_l	mtp_angle_l	lumbar_extension	lumbar_bending	lumbar_rotation	arm_flex_r	arm_add_r	arm_rot_r	elbow_flex_r	pro_sup_r	wrist_flex_r	wrist_dev_r	arm_flex_l	arm_add_l	arm_rot_l	elbow_flex_l	pro_sup_l	wrist_flex_l	wrist_dev_l
     53.05000000	     -2.96970267	     -4.55417069	      2.86144422	      1.09329456	      0.93137592	      0.51854641	     10.47563313	      2.19257308	    -14.44796081	     15.66129889	     15.66129889	      9.93837406	     -0.02464994	     -8.47036062	     29.93045655	    -12.39139401	     -0.93301243	     29.40452684	     29.40452684	      8.03803907	    -14.80354436	     10.07784444	    -11.38900767	      6.17763130	      2.01197861	     27.96796420	    -17.53187989	     -1.62984232	     61.13682134	     45.25520921	      0.00000000	      0.00000000	      1.73230417	     -6.34452673	    -11.36687218	     27.54869029	     46.94594215	      0.00000000	      0.00000000
     53.06257143	     -3.10814688	     -4.51149017	      3.27687207	      1.09279331	      0.93098176	      0.51787522	     10.33934593	      2.12698045	    -14.43793562	     15.75421388	     15.75421388	     10.26740186	     -0.57914334	     -8.35520780	     30.26321795	    -11.94443917	     -1.08187423	     26.34975793	     26.34975793	      7.08500988	    -13.80429927	      8.25463137	    -11.45255324	      6.10068634	      2.91930383	     27.61683844	    -18.87506656	     -2.12872428	     66.93451623	     45.08832017	      0.00000000	      0.00000000	      1.63348831	     -6.02883547	    -12.24542532	     26.02844834	     47.05571820	      0.00000000	      0.00000000
     53.07514286	     -3.25801618	     -4.41131568	      3.71236120	      1.09228642	      0.93068773	      0.51700276	     10.19982624	      1.96640494	    -14.53841895	     15.84114740	     15.84114740	     10.55848225	     -0.95118678	     -8.40707027	     30.62940587	    -11.38421694	     -1.18149513	     23.63093362	     23.63093362	      7.01701056	    -12.37994261	      8.46582265	    -11.37919415	      5.93230430	      2.50513779	     29.27887164	    -18.61072035	     -2.44360911	     68.81079965	     45.04651681	      0.00000000	      0.00000000	      0.60521222	     -6.06169709	    -12.31817022	     25.25978016	     47.04663408	      0.00000000	      0.00000000
     53.08771429	     -3.36101049	     -4.40029075	      4.16156745	      1.09189963	      0.93032382	      0.51605930	      9.98107133	      1.91993557	    -14.64313135	     15.88328619	     15.88328619	     10.91511959	     -1.39813887	     -8.28137053	     31.03793006	    -10.92810902	     -1.29234205	     21.33358821	     21.33358821	      6.75614060	    -10.93239493	      7.69039603	    -11.50544576	      5.91841233	      2.70052584	     29.62142239	    -19.03124299	     -3.33571815	     73.99911478	     44.93265546	      0.00000000	      0.00000000	      0.08276539	     -5.98191903	    -12.77791805	     24.17866148	     47.08762761	      0.00000000	      0.00000000
     53.10028571	     -3.48092882	     -4.31980690	      4.59180537	      1.09160546	      0.93008194	      0.51493609	      9.72601178	      1.78390640	    -14.78906886	     15.85341279	     15.85341279	     11.21886472	     -1.67245753	     -8.30811896	     31.38859002	    -10.36839843	     -1.32353253	     19.29882894	     19.29882894	      6.83758354	     -9.48422915	      7.78222381	    -11.47844619	      5.79671345	      2.19819550	     31.17565263	    -18.64914661	     -3.62000084	     76.37678283	     44.87679733	      0.00000000	      0.00000000	     -0.90434044	     -6.03977177	    -12.84168352	     23.48510846	     47.07646224	      0.00000000	      0.00000000
     53.11285714	     -3.59892492	     -4.32291280	      5.00654448	      1.09145009	      0.92980424	      0.51370667	      9.41232681	      1.74202200	    -14.97147728	     15.72021625	     15.72021625	     11.49149704	     -1.84655771	     -8.28814083	     31.82636934	     -9.92185486	     -1.33388894	     17.79311673	     17.79311673	      7.00207212	     -8.04649229	      7.67790258	    -11.48681661	      5.79522464	      1.99696575	     32.24434346	    -18.51525790	     -3.96523618	     79.89538159	     44.78979051	      0.00000000	      0.00000000	     -1.75342960	     -6.03046694	    -12.96210080	     23.00650697	     47.07416805	      0.00000000	      0.00000000
     53.12542857	     -3.72835188	     -4.31622808	      5.35741302	      1.09147274	      0.92956184	      0.51242078	      9.05243036	      1.70383020	    -15.14804404	     15.50050490	     15.50050490	     11.76882464	     -1.91424781	     -8.27325643	     32.19882418	     -9.50155491	     -1.37525470	     16.60747592	     16.60747592	      7.18990755	     -6.74483886	      7.53073453	    -11.48221196	      5.77204629	      2.22280970	     32.74779808	    -18.77267086	     -4.66743483	     84.13737873	     44.70168999	      0.00000000	      0.00000000	     -2.33856664	     -5.98352863	    -13.09835388	     22.67229667	     47.07359819	      0.00000000	      0.00000000
     53.13800000	     -3.82207776	     -4.24780317	      5.67574811	      1.09170903	      0.92946576	      0.51099864	      8.61140055	      1.60126461	    -15.29768824	     15.23827554	     15.23827554	     11.99352752	     -1.95905715	     -8.26364081	     32.42256086	     -9.03094605	     -1.31300724	     15.71442626	     15.71442626	      7.33406337	     -5.90383652	      7.52116819	    -11.43808936	      5.66070686	      1.98295964	     34.01711564	    -18.38951875	     -4.98157329	     86.62030167	     44.64714751	      0.00000000	      0.00000000	     -3.12249424	     -6.00177029	    -13.12953060	     22.20107344	     47.06076787	      0.00000000	      0.00000000
     53.15057143	     -3.91892427	     -4.27660694	      5.94812573	      1.09213268	      0.92926656	      0.50953497	      8.12698833	      1.60561842	    -15.51364674	     14.89448356	     14.89448356	     12.21784765	     -1.81522990	     -8.29794928	     32.72835350	     -8.72738591	     -1.30905810	     15.40120466	     15.40120466	      7.48648926	     -5.20465965	      7.30026470	    -11.42301809	      5.67279870	      2.45021276	     34.45830765	    -18.69671584	     -5.71224485	     90.62404511	     44.57666406	      0.00000000	      0.00000000	     -3.61822973	     -5.94636333	    -13.23335347	     22.14443663	     47.05534815	      0.00000000	      0.00000000
     53.16314286	     -3.98340707	     -4.28464334	      6.16061493	      1.09274295	      0.92908739	      0.50798933	      7.59560403	      1.59952934	    -15.61866329	     14.54981766	     14.54981766	     12.43647164	     -1.74061932	     -8.28334554	     32.87002494	     -8.42805310	     -1.18252591	     15.33364673	     15.33364673	      7.57759493	     -5.01723508	      7.21635556	    -11.33715610	      5.65910844	      2.27892173	     35.88075656	    -18.24125894	     -5.88495121	     92.54859210	     44.53322369	      0.00000000	      0.00000000	     -4.28462562	     -5.92199121	    -13.24642131	     21.78354865	     47.04350949	      0.00000000	      0.00000000
